<svg xmlns="http://www.w3.org/2000/svg" width="208" height="192" version="1.1">
    <defs>
        <marker id="g8qb5jdg2d-iPointer" fill="#000" markerHeight="7" markerUnits="strokeWidth" markerWidth="8" orient="auto" refX="5" refY="5" viewBox="0 0 10 10">
            <path d="M 10 0 L 10 10 L 0 5 z"/>
        </marker>
        <marker id="g8qb5jdg2d-Pointer" fill="#000" markerHeight="7" markerUnits="strokeWidth" markerWidth="8" orient="auto" refX="5" refY="5" viewBox="0 0 10 10">
            <path d="M 0 0 L 10 5 L 0 10 z"/>
        </marker>
        <filter id="g8qb5jdg2d-dsFilterNoBlur" width="150%" height="150%">
            <feOffset dx="3" dy="3" in="SourceGraphic" result="offOut"/>
            <feColorMatrix in="offOut" result="matrixOut" type="matrix" values="0.2 0 0 0 0 0 0.2 0 0 0 0 0 0.2 0 0 0 0 0 1 0"/>
            <feBlend in="SourceGraphic" in2="matrixOut" mode="normal"/>
        </filter>
        <filter id="g8qb5jdg2d-dsFilter" width="150%" height="150%">
            <feOffset dx="3" dy="3" in="SourceGraphic" result="offOut"/>
            <feColorMatrix in="offOut" result="matrixOut" type="matrix" values="0.2 0 0 0 0 0 0.2 0 0 0 0 0 0.2 0 0 0 0 0 1 0"/>
            <feGaussianBlur in="matrixOut" result="blurOut" stdDeviation="3"/>
            <feBlend in="SourceGraphic" in2="blurOut" mode="normal"/>
        </filter>
    </defs>
    <g id="g8qb5jdg2d-boxes" fill="none" stroke="#000" stroke-width="2">
        <g id="g8qb5jdg2d-group0">
            <path id="g8qb5jdg2d-path0" fill="#933" d="M 4.5 8 L 183.5 8 Q 193.5 8 193.5 18 L 193.5 104 L 4.5 104 Z" filter="url(#g8qb5jdg2d-dsFilter)"/>
        </g>
        <g id="g8qb5jdg2d-group1">
            <path id="g8qb5jdg2d-path1" fill="#bbb" d="M 22.5 46.4 L 22.5 72 A 18 4.8 0 0 0 58.5 72 V 46.4 A 18 4.8 0 0 0 22.5 46.4 Z" filter="url(#g8qb5jdg2d-dsFilter)"/>
            <path id="g8qb5jdg2d-path1" d="M 22.5 46.4 A 18 4.8 0 0 0 58.5 46.4"/>
        </g>
        <g id="g8qb5jdg2d-group1">
            <path id="g8qb5jdg2d-path1" fill="#bbb" d="M 76.5 46.4 L 76.5 72 A 18 4.8 0 0 0 112.5 72 V 46.4 A 18 4.8 0 0 0 76.5 46.4 Z" filter="url(#g8qb5jdg2d-dsFilter)"/>
            <path id="g8qb5jdg2d-path1" d="M 76.5 46.4 A 18 4.8 0 0 0 112.5 46.4"/>
        </g>
        <g id="g8qb5jdg2d-group1">
            <path id="g8qb5jdg2d-path1" fill="#bbb" d="M 130.5 46.4 L 130.5 72 A 18 4.8 0 0 0 166.5 72 V 46.4 A 18 4.8 0 0 0 130.5 46.4 Z" filter="url(#g8qb5jdg2d-dsFilter)"/>
            <path id="g8qb5jdg2d-path1" d="M 130.5 46.4 A 18 4.8 0 0 0 166.5 46.4"/>
        </g>
        <g id="g8qb5jdg2d-group14">
            <path id="g8qb5jdg2d-path14" fill="#fff" d="M 4.5 104 L 193.5 104 L 193.5 152 L 14.5 152 Q 4.5 152 4.5 142 Z" filter="url(#g8qb5jdg2d-dsFilter)"/>
            <text id="g8qb5jdg2d-text0" x="35.1" y="140.8" fill="#000" stroke="none" font-family="Consolas,Monaco,Anonymous Pro,Anonymous,Bitstream Sans Mono,monospace" font-size="15.2">
                a
            </text>
            <text id="g8qb5jdg2d-text1" x="89.1" y="140.8" fill="#000" stroke="none" font-family="Consolas,Monaco,Anonymous Pro,Anonymous,Bitstream Sans Mono,monospace" font-size="15.2">
                2
            </text>
            <text id="g8qb5jdg2d-text2" x="107.1" y="140.8" fill="#000" stroke="none" font-family="Consolas,Monaco,Anonymous Pro,Anonymous,Bitstream Sans Mono,monospace" font-size="15.2">
                sketch
            </text>
        </g>
    </g>
    <g id="g8qb5jdg2d-lines" fill="none" stroke="#000" stroke-width="2">
        <g id="g8qb5jdg2d-group74">
            <path id="g8qb5jdg2d-path74" marker-start="url(#g8qb5jdg2d-iPointer)" d="M 40.5 88 L 40.5 104 L 40.5 120"/>
        </g>
        <g id="g8qb5jdg2d-group146">
            <path id="g8qb5jdg2d-path146" marker-start="url(#g8qb5jdg2d-iPointer)" d="M 94.5 88 L 94.5 104 L 94.5 120"/>
        </g>
        <g id="g8qb5jdg2d-group218">
            <path id="g8qb5jdg2d-path218" marker-start="url(#g8qb5jdg2d-iPointer)" d="M 148.5 88 L 148.5 104 L 148.5 120"/>
        </g>
    </g>
</svg>
