<svg xmlns="http://www.w3.org/2000/svg" width="289" height="288" version="1.1">
    <path fill="#fff" d="M6.093316724512261 24.595791411667598 L276.54067137126765 24.73964502605377 L277.08538850002003 265.80859741358 L3.1891141920204973 263.1456999379625 L6.7454656627651275 21.350968775735964"/>
    <path fill="none" stroke="#000" stroke-width="2" d="M2.614603014671593 21.42002298401785 M4.121894284765126 22.83723666938664 C68.95790477141188 22.147570085704892, 133.83997739343522 23.142824357849612, 276.50057386544034 24.338398852842058 M3.725269009971671 23.396201536905387 C91.30931609334101 20.696822437033198, 179.03958846617675 22.006698056284122, 274.6930632908497 23.48562804601489 M274.22942422778215 23.697468136132986 C269.7123550999938 105.94950788100432, 273.46121329962756 187.51168894108568, 272.624545985143 263.4248227651212 M273.38187517807035 25.06455045571883 C274.8416088605568 115.07803875153166, 274.2274593328861 204.58000120764893, 274.1781367511703 264.70904317791303 M272.33494347232795 264.7945463497682 C203.44583856729645 262.5263160366407, 133.32079500972648 265.5912081081947, 2.632926062519814 265.2801229610722 M275.1046652694909 264.6957584046528 C195.64935066202187 265.5057590627748, 118.87686104871527 266.0598703268249, 3.4562875062102103 264.4492852469055 M2.4794463076699014 263.34969736366344 C2.1832353447820583 184.53213799153508, 1.1446555512250238 100.95873773088962, 3.218406431986212 24.41530501078522 M3.570159497218051 264.53235233163304 C7.661530197594537 195.37692572238117, 6.6111844833576825 125.12003672563674, 4.293623307595067 23.422257241435016"/>
    <path fill="#eee" d="M159.20585921732726 85.39954811286516 L253.9850979214185 85.91622342507654 L258.67403923522943 185.23017913681105 L154.82259258637458 182.59887990280987 L158.8697112336631 86.0461710784759"/>
    <path fill="none" stroke="#000" stroke-width="2" d="M160.0883788552397 88.70839969398367C193.7881686660793 91.32401967662719 228.4755314667631 87.58119860402749 256.10018132248223 88.94735699922748M157.96260711801733 86.70940565423307C193.15082324360756 90.24385739197065 228.93615780320653 88.53116507686183 255.97985778427065 88.36711928833537M257.63027371846255 88.7443925964537C255.52654849088094 118.16381504433885 255.36219829925093 143.88159137418515 255.16655184411246 183.24162288010922M257.33255346524675 88.23331070033274C257.32824841315653 110.64498057890232 257.68627730146164 132.3771659708133 257.1767851381075 184.97674726151962M259.1340205184686 184.50980187245295C230.69827177720725 187.08137268152478 210.9103364494309 181.66920416169796 156.05884003815373 183.04701672166266M256.18213283106235 183.6846655379124C219.30475932200522 183.84950999401934 180.56838340950756 183.1671318342467 157.56205771722526 185.3016769160291M154.70487570061013 182.08025837548922C158.08196284494625 152.4079779021543 159.45647242228952 119.20121362059 158.15538847886054 85.20173729255184M157.5308653975866 185.39149536636796C157.2726862733725 155.8612564607778 158.65797918485038 126.67026867787571 156.7451621023625 89.34820749416176M42.47768613084787 182.7620655108725C31.417338922641648 184.86817502868837 24.814217998805105 186.1246744803289 24.855117495523483 182.0792757313131M39.9591114930752 184.9363239473667C34.887013398209454 184.41909996503722 31.778104680707184 183.34130034207575 23.732590407972694 183.7704519252788M21.371937201189574 181.6480331214516C23.575744739390327 157.90618172199174 23.97767985480762 127.88167330330033 20.809732262090392 87.16435296654M21.910061277256773 183.766080729261C23.0714207280072 158.70797904680802 22.67489575383892 135.08454091608382 22.691664659771412 86.83129045948917M24.10927678122898 88.84841394989526C47.98583907457528 88.34306478892394 75.56682469626094 87.64337539773987 119.4201343034787 89.414216061568M22.1008940717506 86.8802140609235C45.75596492268068 89.48903451569727 66.89156756020056 87.6130062372185 122.83734301143431 88.9438893273411M120.26482108962372 87.13428896535079C123.34453385355746 127.66332617934532 120.51683645992068 164.57155361778132 122.7392911019223 183.91559669798806M121.79762200776887 88.87531935820516C123.8126726107837 109.97491871851089 123.61364255106031 134.060344056159 120.66574429279561 183.2657910250695M120.2770507963869 182.73867279298867C101.85195657400727 181.57136780024047 77.03665208488455 184.95077905671022 57.39129090586012 184.9785598103641M122.40374894221623 183.56497904399052C105.91758168779415 184.27813186202798 89.35287302947411 183.33485773640345 58.30546745444808 183.80078736746447M47.76707468241839 150.24048267823963C48.78321145299571 179.6951246390234 47.49855911793722 203.03805588339236 48.60009337932352 220.2892659848716M48.78751920156428 151.12109179369654C48.82014095874092 172.11041808279106 48.89599234011566 190.06336795158913 50.41868810389788 221.2685841570088M49.5 222C47.21053768217971 231.3215780336303 51.55389973212963 233.2590879480784 59.64539493191478 229.86432918067038M47.09769493746353 220.19211740899482C47.873949850841804 230.02663907979638 52.76840537844336 230.619275831383 60.934587844742275 233.10004098724679M60.53803953774972 231.17123623448452C62.26258882933471 231.831562450125 63.46641246216197 231.34989685968534 68.47521917310573 231.27305435352523M59.01373376378237 231.54858991240792C61.911757963562486 232.19878407856706 64.5109254049859 232.118719459588 67.84473599614044 232.55168987418634M185.43989073046424 232.99865017364647C187.47314968114864 231.35459745236656 189.6987319303371 231.5664799639843 193.25486397442612 231.73451767211895M183.98691206500794 232.44063915904727C186.2641061218655 232.36824592025783 189.34662601583878 232.06172937141534 192.7015894755017 232.44485571147098M192.5 232C196.56688959930784 229.59166348075814 202.4888464658972 226.56414980817485 202.4829541230327 222.81465541788876M193.21248374608257 230.93143007527834C196.94844059108826 233.08594695388982 204.6668374226192 229.50070141323974 202.27622510065464 219.59393059260475M200.12427663192594 223.64160846991143C202.47284673345922 219.14691612305432 201.93193769060372 209.48977026815336 203.780549468167 200.672218413667M203.62963024642795 220.81107686695321C203.7869261878623 215.40364976116052 202.05097482718853 207.8848584662046 201.5888880003782 198.62318704137428"/>
    <defs xmlns="http://www.w3.org/2000/svg">
        <marker id="undefined-undefined-undefined-og9hs8z62pn-iPointer-900g8pms3wl" fill="#000" markerHeight="7" markerUnits="strokeWidth" markerWidth="8" orient="auto" refX="5" refY="5" viewBox="0 0 10 10">
            <path d="M 10 0 L 10 10 L 0 5 z"/>
        </marker>
        <marker id="undefined-undefined-undefined-og9hs8z62pn-Pointer-900g8pms3wl" fill="#000" markerHeight="7" markerUnits="strokeWidth" markerWidth="8" orient="auto" refX="5" refY="5" viewBox="0 0 10 10">
            <path d="M 0 0 L 10 5 L 0 10 z"/>
        </marker>
        <filter id="undefined-undefined-undefined-og9hs8z62pn-dsFilterNoBlur" width="150%" height="150%">
            <feOffset dx="3" dy="3" in="SourceGraphic" result="offOut"/>
            <feColorMatrix in="offOut" result="matrixOut" type="matrix" values="0.2 0 0 0 0 0 0.2 0 0 0 0 0 0.2 0 0 0 0 0 1 0"/>
            <feBlend in="SourceGraphic" in2="matrixOut" mode="normal"/>
        </filter>
        <filter id="undefined-undefined-undefined-og9hs8z62pn-dsFilter" width="150%" height="150%">
            <feOffset dx="3" dy="3" in="SourceGraphic" result="offOut"/>
            <feColorMatrix in="offOut" result="matrixOut" type="matrix" values="0.2 0 0 0 0 0 0.2 0 0 0 0 0 0.2 0 0 0 0 0 1 0"/>
            <feGaussianBlur in="matrixOut" result="blurOut" stdDeviation="3"/>
            <feBlend in="SourceGraphic" in2="blurOut" mode="normal"/>
        </filter>
    </defs>
    ??
    <text id="undefined-undefined-og9hs8z62pn-text0" x="17.1" y="60.8" fill="#000" stroke="none" font-family="xkcd Script" font-size="120%">
        Node
    </text>
    <text id="undefined-undefined-og9hs8z62pn-text1" x="26.1" y="124.8" fill="#000" stroke="none" font-family="xkcd Script" font-size="120%">
        front
    </text>
    <text id="undefined-undefined-og9hs8z62pn-text3" x="80.1" y="236.8" fill="#000" stroke="none" font-family="xkcd Script" font-size="120%">
        service
    </text>
    <text id="undefined-undefined-og9hs8z62pn-text2" x="170.1" y="124.8" fill="#000" stroke="none" font-family="xkcd Script" font-size="120%">
        foo
    </text>
</svg>
